<svg width="96" height="96" viewBox="0 0 96 96" fill="none" xmlns="http://www.w3.org/2000/svg">
<path d="M80 44C80 61.6731 65.6731 76 48 76C30.3269 76 16 61.6731 16 44C16 26.3269 30.3269 12 48 12C65.6731 12 80 26.3269 80 44Z" fill="#DCA16A"/>
<path fill-rule="evenodd" clip-rule="evenodd" d="M82.3704 44C82.3704 62.9822 66.9822 78.3704 48 78.3704C29.0178 78.3704 13.6296 62.9822 13.6296 44C13.6296 25.0178 29.0178 9.62964 48 9.62964C66.9822 9.62964 82.3704 25.0178 82.3704 44ZM48 76C65.6731 76 80 61.6731 80 44C80 26.3269 65.6731 12 48 12C30.3269 12 16 26.3269 16 44C16 61.6731 30.3269 76 48 76Z" fill="#C38144"/>
<path fill-rule="evenodd" clip-rule="evenodd" d="M18.3705 45.1853C17.7159 45.1853 17.1853 44.6547 17.1853 44.0001C17.1853 26.9816 30.9816 13.1853 48.0001 13.1853C48.6547 13.1853 49.1853 13.7159 49.1853 14.3705C49.1853 15.025 48.6547 15.5557 48.0001 15.5557C32.2907 15.5557 19.5557 28.2907 19.5557 44.0001C19.5557 44.6547 19.025 45.1853 18.3705 45.1853Z" fill="#F0B57F"/>
<path fill-rule="evenodd" clip-rule="evenodd" d="M77.6295 42.8147C78.2841 42.8147 78.8147 43.3453 78.8147 43.9999C78.8147 61.0184 65.0184 74.8147 47.9999 74.8147C47.3453 74.8147 46.8147 74.2841 46.8147 73.6295C46.8147 72.975 47.3453 72.4443 47.9999 72.4443C63.7093 72.4443 76.4443 59.7093 76.4443 43.9999C76.4443 43.3453 76.975 42.8147 77.6295 42.8147Z" fill="#CF945D"/>
<path d="M71.7038 44.0001C71.7038 57.0913 61.0913 67.7038 48.0001 67.7038C34.9089 67.7038 24.2964 57.0913 24.2964 44.0001C24.2964 30.9089 34.9089 20.2964 48.0001 20.2964C61.0913 20.2964 71.7038 30.9089 71.7038 44.0001Z" fill="#F7BA82"/>
<path fill-rule="evenodd" clip-rule="evenodd" d="M74.0742 44.0001C74.0742 58.4004 62.4004 70.0742 48.0001 70.0742C33.5998 70.0742 21.926 58.4004 21.926 44.0001C21.926 29.5998 33.5998 17.926 48.0001 17.926C62.4004 17.926 74.0742 29.5998 74.0742 44.0001ZM48.0001 67.7038C61.0913 67.7038 71.7038 57.0913 71.7038 44.0001C71.7038 30.9089 61.0913 20.2964 48.0001 20.2964C34.9089 20.2964 24.2964 30.9089 24.2964 44.0001C24.2964 57.0913 34.9089 67.7038 48.0001 67.7038Z" fill="#C38144"/>
<path fill-rule="evenodd" clip-rule="evenodd" d="M48 64.1482C59.1276 64.1482 68.1482 55.1276 68.1482 44C68.1482 43.3455 68.6788 42.8149 69.3334 42.8149C69.9879 42.8149 70.5186 43.3455 70.5186 44C70.5186 56.4367 60.4367 66.5186 48 66.5186C47.3455 66.5186 46.8149 65.9879 46.8149 65.3334C46.8149 64.6788 47.3455 64.1482 48 64.1482Z" fill="#E6A66C"/>
<path fill-rule="evenodd" clip-rule="evenodd" d="M48 23.8518C36.8724 23.8518 27.8518 32.8724 27.8518 44C27.8518 44.6545 27.3212 45.1851 26.6666 45.1851C26.0121 45.1851 25.4814 44.6545 25.4814 44C25.4814 31.5633 35.5633 21.4814 48 21.4814C48.6545 21.4814 49.1851 22.0121 49.1851 22.6666C49.1851 23.3212 48.6545 23.8518 48 23.8518Z" fill="#FFD5AE"/>
<path d="M11.7767 75.5528L8.7239 69.4472C8.39145 68.7823 8.87494 68 9.61832 68L23.0003 68C23.5526 68 24.0003 68.4477 24.0003 69L24.0003 83C24.0003 83.5523 23.5526 84 23.0003 84L9.61832 84C8.87494 84 8.39145 83.2177 8.7239 82.5528L11.7767 76.4472C11.9174 76.1657 11.9174 75.8343 11.7767 75.5528Z" fill="#C52229"/>
<path d="M84.2239 75.5528L87.2767 69.4472C87.6091 68.7823 87.1256 68 86.3823 68L73.0003 68C72.448 68 72.0003 68.4477 72.0003 69L72.0003 83C72.0003 83.5523 72.448 84 73.0003 84L86.3823 84C87.1256 84 87.6091 83.2177 87.2767 82.5528L84.2239 76.4472C84.0831 76.1657 84.0831 75.8343 84.2239 75.5528Z" fill="#C52229"/>
<path fill-rule="evenodd" clip-rule="evenodd" d="M9.76408 76L6.93491 70.3416C5.93756 68.347 7.38802 66 9.61819 66L23.0002 66C24.657 66 26.0001 67.3431 26.0001 69L26.0001 83C26.0001 84.6569 24.657 86 23.0002 86L9.61819 86C7.38802 86 5.93756 83.653 6.93491 81.6584L9.76408 76ZM9.98711 76.4461C9.98731 76.4465 9.9875 76.4468 9.9877 76.4472L10.8821 76L9.98769 76.4472L9.98711 76.4461ZM86.2362 76L89.0654 70.3416C90.0627 68.3469 88.6123 66 86.3821 66L73.0002 66C71.3433 66 70.0002 67.3431 70.0002 69L70.0001 83C70.0001 84.6569 71.3433 86 73.0001 86L86.3821 86C88.6123 86 90.0627 83.6531 89.0654 81.6584L86.2362 76ZM87.2765 69.4472L84.2238 75.5528C84.083 75.8343 84.083 76.1657 84.2238 76.4472L87.2765 82.5528C87.609 83.2177 87.1255 84 86.3821 84L73.0001 84C72.4479 84 72.0001 83.5523 72.0001 83L72.0002 69C72.0002 68.4477 72.4479 68 73.0002 68L86.3821 68C87.1255 68 87.609 68.7823 87.2765 69.4472ZM8.72376 69.4472L11.7765 75.5528C11.9173 75.8343 11.9173 76.1657 11.7765 76.4472L8.72376 82.5528C8.39131 83.2177 8.8748 84 9.61819 84L23.0002 84C23.5524 84 24.0002 83.5523 24.0002 83L24.0002 69C24.0002 68.4477 23.5524 68 23.0002 68L9.61819 68C8.8748 68 8.39131 68.7823 8.72376 69.4472Z" fill="#9B0F15"/>
<path fill-rule="evenodd" clip-rule="evenodd" d="M10.1542 68.9043C10.3374 68.6138 10.6568 68.4375 11.0002 68.4375H15.2502C15.8025 68.4375 16.2502 68.8852 16.2502 69.4375C16.2502 69.9898 15.8025 70.4375 15.2502 70.4375H12.587L14.6524 74.756C14.8907 75.2543 14.6799 75.8513 14.1817 76.0896C13.6835 76.3279 13.0864 76.1172 12.8481 75.619L10.0981 69.869C9.94992 69.5591 9.97112 69.1949 10.1542 68.9043Z" fill="#DF3840"/>
<path d="M76.0002 79L76.0002 65C76.0002 64.4477 75.5525 64 75.0002 64L21.0002 64C20.448 64 20.0002 64.4477 20.0002 65L20.0002 79C20.0002 79.5523 20.448 80 21.0002 80L75.0002 80C75.5525 80 76.0002 79.5523 76.0002 79Z" fill="#F1333B"/>
<path fill-rule="evenodd" clip-rule="evenodd" d="M78.0002 65L78.0002 79C78.0002 80.6569 76.6571 82 75.0002 82L21.0002 82C19.3434 82 18.0002 80.6569 18.0002 79L18.0002 65C18.0002 63.3431 19.3434 62 21.0002 62L75.0002 62C76.6571 62 78.0002 63.3431 78.0002 65ZM76.0002 65L76.0002 79C76.0002 79.5523 75.5525 80 75.0002 80L21.0002 80C20.448 80 20.0002 79.5523 20.0002 79L20.0002 65C20.0002 64.4477 20.448 64 21.0002 64L75.0002 64C75.5525 64 76.0002 64.4477 76.0002 65Z" fill="#9B0F15"/>
<path d="M73.2376 72.3798C72.6714 72.3798 72.2123 71.9319 72.2123 71.3795C72.2123 70.827 72.6714 70.3792 73.2376 70.3792C73.8039 70.3792 74.2629 70.827 74.2629 71.3795C74.2629 71.9319 73.8039 72.3798 73.2376 72.3798Z" fill="#DB1B24"/>
<path d="M69.3364 71.9795C68.6321 71.9795 68.061 71.4224 68.061 70.7352C68.061 70.048 68.6321 69.491 69.3364 69.491C70.0408 69.491 70.6118 70.048 70.6118 70.7352C70.6118 71.4224 70.0408 71.9795 69.3364 71.9795Z" fill="#DB1B24"/>
<path d="M71.0745 74.8244C70.7223 74.8244 70.4368 74.5458 70.4368 74.2022C70.4368 73.8586 70.7223 73.5801 71.0745 73.5801C71.4267 73.5801 71.7122 73.8586 71.7122 74.2022C71.7122 74.5458 71.4267 74.8244 71.0745 74.8244Z" fill="#DB1B24"/>
<path d="M69.9741 68.2443C69.6219 68.2443 69.3364 67.9657 69.3364 67.6221C69.3364 67.2785 69.6219 67 69.9741 67C70.3263 67 70.6118 67.2785 70.6118 67.6221C70.6118 67.9657 70.3263 68.2443 69.9741 68.2443Z" fill="#DB1B24"/>
<path d="M66.623 74.2023C66.2709 74.2023 65.9854 73.9237 65.9854 73.5801C65.9854 73.2365 66.2709 72.958 66.6231 72.958C66.9752 72.958 67.2607 73.2365 67.2607 73.5801C67.2607 73.9237 66.9752 74.2023 66.623 74.2023Z" fill="#DB1B24"/>
<path d="M65.9854 71.0014C65.6332 71.0014 65.3477 70.7228 65.3477 70.3792C65.3477 70.0356 65.6332 69.7571 65.9854 69.7571C66.3375 69.7571 66.623 70.0356 66.623 70.3792C66.623 70.7228 66.3375 71.0014 65.9854 71.0014Z" fill="#DB1B24"/>
<path d="M61.6379 78.2182C61.2858 78.2182 61.0003 77.9396 61.0003 77.596C61.0003 77.2524 61.2858 76.9739 61.6379 76.9739C61.9901 76.9739 62.2756 77.2524 62.2756 77.596C62.2756 77.9396 61.9901 78.2182 61.6379 78.2182Z" fill="#DB1B24"/>
<path d="M74.3254 75.8432C73.9733 75.8432 73.6878 75.5646 73.6878 75.221C73.6878 74.8774 73.9733 74.5989 74.3254 74.5989C74.6776 74.5989 74.9631 74.8774 74.9631 75.221C74.9631 75.5646 74.6776 75.8432 74.3254 75.8432Z" fill="#DB1B24"/>
<path d="M68.2986 77.2057C67.7254 77.2057 67.2608 76.7524 67.2608 76.1932C67.2608 75.634 67.7254 75.1807 68.2986 75.1807C68.8718 75.1807 69.3364 75.634 69.3364 76.1932C69.3364 76.7524 68.8718 77.2057 68.2986 77.2057Z" fill="#DB1B24"/>
<path d="M72.7498 78.2181C72.1766 78.2181 71.712 77.7648 71.712 77.2056C71.712 76.6464 72.1766 76.1931 72.7498 76.1931C73.323 76.1931 73.7876 76.6464 73.7876 77.2056C73.7876 77.7648 73.323 78.2181 72.7498 78.2181Z" fill="#DB1B24"/>
<path d="M63.6721 76.2271C63.099 76.2271 62.6343 75.7738 62.6343 75.2146C62.6343 74.6555 63.099 74.2021 63.6721 74.2021C64.2453 74.2021 64.71 74.6555 64.71 75.2146C64.71 75.7738 64.2453 76.2271 63.6721 76.2271Z" fill="#DB1B24"/>
<path d="M65.3477 78.5255C64.9955 78.5255 64.71 78.247 64.71 77.9034C64.71 77.5598 64.9955 77.2812 65.3477 77.2812C65.6998 77.2812 65.9854 77.5598 65.9854 77.9034C65.9854 78.247 65.6998 78.5255 65.3477 78.5255Z" fill="#DB1B24"/>
<path fill-rule="evenodd" clip-rule="evenodd" d="M20.6252 65.4375C20.6252 64.8852 21.073 64.4375 21.6252 64.4375H59.1252C59.6775 64.4375 60.1252 64.8852 60.1252 65.4375C60.1252 65.9898 59.6775 66.4375 59.1252 66.4375H22.6252V73.4375C22.6252 73.9898 22.1775 74.4375 21.6252 74.4375C21.073 74.4375 20.6252 73.9898 20.6252 73.4375V65.4375Z" fill="#FE666D"/>
<path d="M45.4282 41.8182H47.3665C48.2896 41.8182 48.9735 41.5875 49.4182 41.1259C49.8629 40.6644 50.0853 40.0519 50.0853 39.2883C50.0853 38.5499 49.8629 37.9751 49.4182 37.5639C48.9818 37.1527 48.3777 36.9471 47.6057 36.9471C46.9092 36.9471 46.326 37.1401 45.8561 37.5261C45.3862 37.9037 45.1513 38.3988 45.1513 39.0114H41.5137C41.5137 38.0548 41.7696 37.1989 42.2815 36.4437C42.8017 35.6801 43.5234 35.0843 44.4464 34.6563C45.3778 34.2284 46.4015 34.0144 47.5176 34.0144C49.4559 34.0144 50.9748 34.4801 52.074 35.4115C53.1733 36.3346 53.7229 37.61 53.7229 39.2379C53.7229 40.077 53.4669 40.849 52.9551 41.5539C52.4432 42.2588 51.7719 42.8 50.9412 43.1776C51.9733 43.5468 52.7411 44.1006 53.2446 44.8391C53.7564 45.5775 54.0124 46.4502 54.0124 47.4571C54.0124 49.085 53.4166 50.3898 52.225 51.3716C51.0419 52.3534 49.4727 52.8443 47.5176 52.8443C45.6883 52.8443 44.1905 52.3618 43.0241 51.3968C41.8661 50.4318 41.2871 49.1563 41.2871 47.5704H44.9247C44.9247 48.2585 45.1806 48.8207 45.6925 49.257C46.2127 49.6934 46.8505 49.9115 47.6057 49.9115C48.47 49.9115 49.1455 49.685 49.6322 49.2319C50.1272 48.7703 50.3748 48.162 50.3748 47.4068C50.3748 45.5775 49.3678 44.6628 47.354 44.6628H45.4282V41.8182Z" fill="#FFD5AE"/>
<path fill-rule="evenodd" clip-rule="evenodd" d="M43.3829 41.1595H41.5136C40.3272 41.1595 39.3655 40.1977 39.3655 39.0113C39.3655 37.6471 39.7382 36.3671 40.5032 35.2384L40.5061 35.2341C41.2665 34.118 42.3044 33.2816 43.5428 32.7074L43.5495 32.7043C44.7865 32.136 46.1197 31.8662 47.5175 31.8662C49.7862 31.8662 51.856 32.413 53.459 33.7695C55.1104 35.1581 55.871 37.0723 55.871 39.2379C55.871 40.5486 55.4607 41.7593 54.6932 42.8161C54.6435 42.8845 54.5928 42.9518 54.5411 43.018C54.7101 43.2068 54.8683 43.408 55.0146 43.6219C55.802 44.7609 56.1605 46.0704 56.1605 47.4571C56.1605 49.6853 55.3089 51.6125 53.594 53.0269C51.9308 54.4059 49.8333 54.9924 47.5175 54.9924C45.2966 54.9924 43.2821 54.3983 41.6547 53.0519L41.6488 53.047C39.9725 51.6501 39.1389 49.7557 39.1389 47.5703C39.1389 46.384 40.1007 45.4222 41.2871 45.4222H43.4181C43.3288 45.1861 43.28 44.9302 43.28 44.6628V41.8182C43.28 41.5884 43.3161 41.367 43.3829 41.1595ZM46.9347 46.8109C47.024 47.047 47.0728 47.303 47.0728 47.5703C47.0728 47.5883 47.0736 47.602 47.0745 47.612C47.0762 47.6136 47.0781 47.6153 47.0803 47.6172C47.1697 47.6903 47.3033 47.7633 47.6056 47.7633C47.8534 47.7633 48.001 47.7306 48.0774 47.7049C48.141 47.6836 48.1619 47.6655 48.1673 47.6605M46.9347 46.8109H47.3539C47.8878 46.8109 48.1054 46.9027 48.1648 46.9346C48.1661 46.9379 48.1676 46.9418 48.1693 46.9463C48.1894 47.0011 48.2266 47.1409 48.2266 47.4067C48.2266 47.5479 48.204 47.6083 48.1993 47.6198C48.1965 47.6269 48.1943 47.6304 48.1923 47.6332C48.1902 47.6362 48.183 47.6458 48.1673 47.6605M52.225 51.3716C53.4165 50.3898 54.0123 49.085 54.0123 47.4571C54.0123 46.4501 53.7564 45.5774 53.2445 44.839C53.1616 44.7174 53.0716 44.6009 52.9744 44.4893C52.4811 43.9232 51.8033 43.486 50.9411 43.1776C51.7181 42.8244 52.3557 42.328 52.8537 41.6886C52.8881 41.6444 52.9219 41.5994 52.955 41.5539C53.4669 40.849 53.7228 40.077 53.7228 39.2379C53.7228 37.61 53.1732 36.3345 52.074 35.4115C50.9747 34.4801 49.4559 34.0144 47.5175 34.0144C46.4015 34.0144 45.3778 34.2283 44.4464 34.6563C43.5233 35.0842 42.8017 35.68 42.2814 36.4436C42.1889 36.5802 42.1047 36.72 42.0289 36.8632C41.6854 37.5117 41.5136 38.2277 41.5136 39.0113H45.1512C45.1512 38.3988 45.3862 37.9037 45.8561 37.5261C46.326 37.1401 46.9092 36.9471 47.6056 36.9471C48.3776 36.9471 48.9818 37.1527 49.4181 37.5638C49.8629 37.975 50.0852 38.5498 50.0852 39.2882C50.0852 40.0518 49.8629 40.6644 49.4181 41.1259C48.9734 41.5874 48.2895 41.8182 47.3665 41.8182H45.4281V44.6628H47.3539C49.3678 44.6628 50.3747 45.5774 50.3747 47.4067C50.3747 48.1619 50.1272 48.7703 49.6321 49.2318C49.1454 49.6849 48.4699 49.9115 47.6056 49.9115C46.8504 49.9115 46.2127 49.6933 45.6924 49.257C45.1806 48.8206 44.9247 48.2584 44.9247 47.5703H41.2871C41.2871 48.3642 41.4321 49.0802 41.7223 49.7185C42.0118 50.3554 42.4457 50.9148 43.024 51.3967C44.1904 52.3617 45.6883 52.8442 47.5175 52.8442C49.4727 52.8442 51.0418 52.3533 52.225 51.3716ZM47.1965 39.67C47.2507 39.5017 47.2846 39.3242 47.2955 39.1406C47.3524 39.1172 47.4463 39.0952 47.6056 39.0952C47.7769 39.0952 47.8776 39.1151 47.9264 39.1289C47.9318 39.1626 47.9371 39.2144 47.9371 39.2882C47.9371 39.4621 47.9119 39.5526 47.8992 39.5873C47.8963 39.5956 47.8935 39.6022 47.8909 39.6077C47.889 39.6083 47.887 39.609 47.8849 39.6097C47.8161 39.6329 47.6563 39.67 47.3665 39.67H47.1965Z" fill="#C28044"/>
</svg>
