<svg width="96" height="96" viewBox="0 0 96 96" fill="none" xmlns="http://www.w3.org/2000/svg">
<path d="M80 44C80 61.6731 65.6731 76 48 76C30.3269 76 16 61.6731 16 44C16 26.3269 30.3269 12 48 12C65.6731 12 80 26.3269 80 44Z" fill="#FFBB0D"/>
<path fill-rule="evenodd" clip-rule="evenodd" d="M82.3704 44C82.3704 62.9822 66.9822 78.3704 48 78.3704C29.0178 78.3704 13.6296 62.9822 13.6296 44C13.6296 25.0178 29.0178 9.62964 48 9.62964C66.9822 9.62964 82.3704 25.0178 82.3704 44ZM48 76C65.6731 76 80 61.6731 80 44C80 26.3269 65.6731 12 48 12C30.3269 12 16 26.3269 16 44C16 61.6731 30.3269 76 48 76Z" fill="#E89B05"/>
<path fill-rule="evenodd" clip-rule="evenodd" d="M18.3705 45.1853C17.7159 45.1853 17.1853 44.6547 17.1853 44.0001C17.1853 26.9816 30.9816 13.1853 48.0001 13.1853C48.6547 13.1853 49.1853 13.7159 49.1853 14.3705C49.1853 15.025 48.6547 15.5557 48.0001 15.5557C32.2907 15.5557 19.5557 28.2907 19.5557 44.0001C19.5557 44.6547 19.025 45.1853 18.3705 45.1853Z" fill="#E8AA0A"/>
<path fill-rule="evenodd" clip-rule="evenodd" d="M77.6298 42.8149C78.2843 42.8149 78.8149 43.3456 78.8149 44.0001C78.8149 61.0187 65.0187 74.8149 48.0001 74.8149C47.3456 74.8149 46.8149 74.2843 46.8149 73.6298C46.8149 72.9752 47.3456 72.4446 48.0001 72.4446C63.7096 72.4446 76.4446 59.7096 76.4446 44.0001C76.4446 43.3456 76.9752 42.8149 77.6298 42.8149Z" fill="#E8AA0A"/>
<path d="M71.7038 44.0001C71.7038 57.0913 61.0913 67.7038 48.0001 67.7038C34.9089 67.7038 24.2964 57.0913 24.2964 44.0001C24.2964 30.9089 34.9089 20.2964 48.0001 20.2964C61.0913 20.2964 71.7038 30.9089 71.7038 44.0001Z" fill="#FFDD28"/>
<path fill-rule="evenodd" clip-rule="evenodd" d="M74.0742 44.0001C74.0742 58.4004 62.4004 70.0742 48.0001 70.0742C33.5998 70.0742 21.926 58.4004 21.926 44.0001C21.926 29.5998 33.5998 17.926 48.0001 17.926C62.4004 17.926 74.0742 29.5998 74.0742 44.0001ZM48.0001 67.7038C61.0913 67.7038 71.7038 57.0913 71.7038 44.0001C71.7038 30.9089 61.0913 20.2964 48.0001 20.2964C34.9089 20.2964 24.2964 30.9089 24.2964 44.0001C24.2964 57.0913 34.9089 67.7038 48.0001 67.7038Z" fill="#E89B05"/>
<path fill-rule="evenodd" clip-rule="evenodd" d="M48 64.1482C59.1276 64.1482 68.1482 55.1276 68.1482 44C68.1482 43.3455 68.6788 42.8149 69.3334 42.8149C69.9879 42.8149 70.5186 43.3455 70.5186 44C70.5186 56.4367 60.4367 66.5186 48 66.5186C47.3455 66.5186 46.8149 65.9879 46.8149 65.3334C46.8149 64.6788 47.3455 64.1482 48 64.1482Z" fill="#ECC704"/>
<path fill-rule="evenodd" clip-rule="evenodd" d="M48 23.8518C36.8724 23.8518 27.8518 32.8724 27.8518 44C27.8518 44.6545 27.3212 45.1851 26.6666 45.1851C26.0121 45.1851 25.4814 44.6545 25.4814 44C25.4814 31.5633 35.5633 21.4814 48 21.4814C48.6545 21.4814 49.1851 22.0121 49.1851 22.6666C49.1851 23.3212 48.6545 23.8518 48 23.8518Z" fill="#FFEF9C"/>
<path d="M11.7767 75.5528L8.7239 69.4472C8.39145 68.7823 8.87494 68 9.61832 68L23.0003 68C23.5526 68 24.0003 68.4477 24.0003 69L24.0003 83C24.0003 83.5523 23.5526 84 23.0003 84L9.61832 84C8.87494 84 8.39145 83.2177 8.7239 82.5528L11.7767 76.4472C11.9174 76.1657 11.9174 75.8343 11.7767 75.5528Z" fill="#C52229"/>
<path d="M84.2239 75.5528L87.2767 69.4472C87.6091 68.7823 87.1256 68 86.3823 68L73.0003 68C72.448 68 72.0003 68.4477 72.0003 69L72.0003 83C72.0003 83.5523 72.448 84 73.0003 84L86.3823 84C87.1256 84 87.6091 83.2177 87.2767 82.5528L84.2239 76.4472C84.0831 76.1657 84.0831 75.8343 84.2239 75.5528Z" fill="#C52229"/>
<path fill-rule="evenodd" clip-rule="evenodd" d="M9.76408 76L6.93491 70.3416C5.93756 68.347 7.38802 66 9.61819 66L23.0002 66C24.657 66 26.0001 67.3431 26.0001 69L26.0001 83C26.0001 84.6569 24.657 86 23.0002 86L9.61819 86C7.38802 86 5.93756 83.653 6.93491 81.6584L9.76408 76ZM9.98711 76.4461C9.98731 76.4465 9.9875 76.4468 9.9877 76.4472L10.8821 76L9.98769 76.4472L9.98711 76.4461ZM86.2362 76L89.0654 70.3416C90.0627 68.3469 88.6123 66 86.3821 66L73.0002 66C71.3433 66 70.0002 67.3431 70.0002 69L70.0001 83C70.0001 84.6569 71.3433 86 73.0001 86L86.3821 86C88.6123 86 90.0627 83.6531 89.0654 81.6584L86.2362 76ZM87.2765 69.4472L84.2238 75.5528C84.083 75.8343 84.083 76.1657 84.2238 76.4472L87.2765 82.5528C87.609 83.2177 87.1255 84 86.3821 84L73.0001 84C72.4479 84 72.0001 83.5523 72.0001 83L72.0002 69C72.0002 68.4477 72.4479 68 73.0002 68L86.3821 68C87.1255 68 87.609 68.7823 87.2765 69.4472ZM8.72376 69.4472L11.7765 75.5528C11.9173 75.8343 11.9173 76.1657 11.7765 76.4472L8.72376 82.5528C8.39131 83.2177 8.8748 84 9.61819 84L23.0002 84C23.5524 84 24.0002 83.5523 24.0002 83L24.0002 69C24.0002 68.4477 23.5524 68 23.0002 68L9.61819 68C8.8748 68 8.39131 68.7823 8.72376 69.4472Z" fill="#9B0F15"/>
<path fill-rule="evenodd" clip-rule="evenodd" d="M10.1542 68.9043C10.3374 68.6138 10.6568 68.4375 11.0002 68.4375H15.2502C15.8025 68.4375 16.2502 68.8852 16.2502 69.4375C16.2502 69.9898 15.8025 70.4375 15.2502 70.4375H12.587L14.6524 74.756C14.8907 75.2543 14.6799 75.8513 14.1817 76.0896C13.6835 76.3279 13.0864 76.1172 12.8481 75.619L10.0981 69.869C9.94992 69.5591 9.97112 69.1949 10.1542 68.9043Z" fill="#DF3840"/>
<path d="M76.0002 79L76.0002 65C76.0002 64.4477 75.5525 64 75.0002 64L21.0002 64C20.448 64 20.0002 64.4477 20.0002 65L20.0002 79C20.0002 79.5523 20.448 80 21.0002 80L75.0002 80C75.5525 80 76.0002 79.5523 76.0002 79Z" fill="#F1333B"/>
<path fill-rule="evenodd" clip-rule="evenodd" d="M78.0002 65L78.0002 79C78.0002 80.6569 76.6571 82 75.0002 82L21.0002 82C19.3434 82 18.0002 80.6569 18.0002 79L18.0002 65C18.0002 63.3431 19.3434 62 21.0002 62L75.0002 62C76.6571 62 78.0002 63.3431 78.0002 65ZM76.0002 65L76.0002 79C76.0002 79.5523 75.5525 80 75.0002 80L21.0002 80C20.448 80 20.0002 79.5523 20.0002 79L20.0002 65C20.0002 64.4477 20.448 64 21.0002 64L75.0002 64C75.5525 64 76.0002 64.4477 76.0002 65Z" fill="#9B0F15"/>
<path d="M73.2376 72.3798C72.6714 72.3798 72.2123 71.9319 72.2123 71.3795C72.2123 70.827 72.6714 70.3792 73.2376 70.3792C73.8039 70.3792 74.2629 70.827 74.2629 71.3795C74.2629 71.9319 73.8039 72.3798 73.2376 72.3798Z" fill="#DB1B24"/>
<path d="M69.3364 71.9795C68.6321 71.9795 68.061 71.4224 68.061 70.7352C68.061 70.048 68.6321 69.491 69.3364 69.491C70.0408 69.491 70.6118 70.048 70.6118 70.7352C70.6118 71.4224 70.0408 71.9795 69.3364 71.9795Z" fill="#DB1B24"/>
<path d="M71.0745 74.8244C70.7223 74.8244 70.4368 74.5458 70.4368 74.2022C70.4368 73.8586 70.7223 73.5801 71.0745 73.5801C71.4267 73.5801 71.7122 73.8586 71.7122 74.2022C71.7122 74.5458 71.4267 74.8244 71.0745 74.8244Z" fill="#DB1B24"/>
<path d="M69.9741 68.2443C69.6219 68.2443 69.3364 67.9657 69.3364 67.6221C69.3364 67.2785 69.6219 67 69.9741 67C70.3263 67 70.6118 67.2785 70.6118 67.6221C70.6118 67.9657 70.3263 68.2443 69.9741 68.2443Z" fill="#DB1B24"/>
<path d="M66.623 74.2023C66.2709 74.2023 65.9854 73.9237 65.9854 73.5801C65.9854 73.2365 66.2709 72.958 66.6231 72.958C66.9752 72.958 67.2607 73.2365 67.2607 73.5801C67.2607 73.9237 66.9752 74.2023 66.623 74.2023Z" fill="#DB1B24"/>
<path d="M65.9854 71.0014C65.6332 71.0014 65.3477 70.7228 65.3477 70.3792C65.3477 70.0356 65.6332 69.7571 65.9854 69.7571C66.3375 69.7571 66.623 70.0356 66.623 70.3792C66.623 70.7228 66.3375 71.0014 65.9854 71.0014Z" fill="#DB1B24"/>
<path d="M61.6379 78.2182C61.2858 78.2182 61.0003 77.9396 61.0003 77.596C61.0003 77.2524 61.2858 76.9739 61.6379 76.9739C61.9901 76.9739 62.2756 77.2524 62.2756 77.596C62.2756 77.9396 61.9901 78.2182 61.6379 78.2182Z" fill="#DB1B24"/>
<path d="M74.3254 75.8432C73.9733 75.8432 73.6878 75.5646 73.6878 75.221C73.6878 74.8774 73.9733 74.5989 74.3254 74.5989C74.6776 74.5989 74.9631 74.8774 74.9631 75.221C74.9631 75.5646 74.6776 75.8432 74.3254 75.8432Z" fill="#DB1B24"/>
<path d="M68.2986 77.2057C67.7254 77.2057 67.2608 76.7524 67.2608 76.1932C67.2608 75.634 67.7254 75.1807 68.2986 75.1807C68.8718 75.1807 69.3364 75.634 69.3364 76.1932C69.3364 76.7524 68.8718 77.2057 68.2986 77.2057Z" fill="#DB1B24"/>
<path d="M72.7498 78.2181C72.1766 78.2181 71.712 77.7648 71.712 77.2056C71.712 76.6464 72.1766 76.1931 72.7498 76.1931C73.323 76.1931 73.7876 76.6464 73.7876 77.2056C73.7876 77.7648 73.323 78.2181 72.7498 78.2181Z" fill="#DB1B24"/>
<path d="M63.6721 76.2271C63.099 76.2271 62.6343 75.7738 62.6343 75.2146C62.6343 74.6555 63.099 74.2021 63.6721 74.2021C64.2453 74.2021 64.71 74.6555 64.71 75.2146C64.71 75.7738 64.2453 76.2271 63.6721 76.2271Z" fill="#DB1B24"/>
<path d="M65.3477 78.5255C64.9955 78.5255 64.71 78.247 64.71 77.9034C64.71 77.5598 64.9955 77.2812 65.3477 77.2812C65.6998 77.2812 65.9854 77.5598 65.9854 77.9034C65.9854 78.247 65.6998 78.5255 65.3477 78.5255Z" fill="#DB1B24"/>
<path fill-rule="evenodd" clip-rule="evenodd" d="M20.6252 65.4375C20.6252 64.8852 21.073 64.4375 21.6252 64.4375H59.1252C59.6775 64.4375 60.1252 64.8852 60.1252 65.4375C60.1252 65.9898 59.6775 66.4375 59.1252 66.4375H22.6252V73.4375C22.6252 73.9898 22.1775 74.4375 21.6252 74.4375C21.073 74.4375 20.6252 73.9898 20.6252 73.4375V65.4375Z" fill="#FE666D"/>
<path d="M50.5635 52.5925H46.9259V38.5708L42.5835 39.9176V36.9597L50.1733 34.241H50.5635V52.5925Z" fill="#FFEF9C"/>
<path fill-rule="evenodd" clip-rule="evenodd" d="M52.7116 52.5925C52.7116 53.7789 51.7499 54.7406 50.5635 54.7406H46.9259C45.7395 54.7406 44.7778 53.7789 44.7778 52.5925V41.4861L43.2198 41.9693C42.5679 42.1715 41.8587 42.0518 41.3092 41.6469C40.7597 41.2421 40.4353 40.6001 40.4353 39.9176V36.9597C40.4353 36.0526 41.0051 35.2432 41.859 34.9374L49.4489 32.2186C49.6813 32.1353 49.9264 32.0928 50.1733 32.0928H50.5635C51.7499 32.0928 52.7116 33.0545 52.7116 34.2409V52.5925ZM46.9259 38.5708V52.5925H50.5635V34.2409H50.1733L42.5835 36.9597V39.9176L46.9259 38.5708Z" fill="#E89B05"/>
</svg>
